P3
45 74
255
255 255 255 255 255 255 255 255 255 255 255 255 255 255 255 255 255 255 255 255 255 255 255 255 255 255 255 255 255 255 255 255 255 255 255 255 255 255 255 255 255 255 255 255 255 255 255 255 255 255 255 255 255 255 255 255 255 255 255 255 255 255 255 255 255 255 255 255 255 255 255 255 255 255 255 255 255 255 255 255 255 255 255 254 255 253 254 255 249 255 255 253 255 101 255 255 20 255 255 0 255 255 6 255 255 6 255 255 6 255 255 1 255 255 46 255 255 201 255 255 255 253 252 255 254 254 255 254 254 255 255 255 255 255 255 
255 255 255 255 255 255 255 255 255 255 255 255 255 255 255 255 255 255 255 255 255 255 255 255 255 255 255 255 255 255 255 255 255 255 255 255 255 255 255 255 255 255 255 255 255 255 255 255 255 255 255 255 255 255 255 255 255 255 255 255 255 255 255 255 255 255 255 255 255 255 255 255 251 255 255 252 255 255 254 255 255 255 255 254 123 255 255 84 255 255 38 254 247 47 156 89 31 141 5 28 151 0 36 155 0 36 154 0 36 154 0 32 157 0 51 129 38 48 214 199 41 255 255 193 255 255 255 255 255 254 255 255 255 255 255 
255 255 255 255 255 255 255 255 255 255 255 255 255 255 255 255 255 255 255 255 255 255 255 255 255 255 255 255 255 255 255 255 255 255 255 255 255 255 255 255 255 255 255 255 255 255 255 255 255 255 255 255 255 255 255 255 255 255 255 255 255 255 255 255 255 255 255 255 255 255 255 255 255 252 252 255 254 254 255 252 253 179 255 255 9 166 113 32 164 74 38 143 24 34 229 42 35 244 24 33 242 31 36 246 28 36 246 28 36 246 28 35 244 26 34 238 39 32 185 35 44 134 28 48 211 184 94 255 255 255 248 255 255 255 255 
255 255 255 255 255 255 255 255 255 255 255 255 255 255 255 255 255 255 255 255 255 255 255 255 255 255 255 255 255 255 255 255 255 255 255 255 255 255 255 255 255 255 255 255 255 255 255 255 255 255 255 255 255 255 255 255 255 255 255 255 255 255 255 255 255 255 255 255 255 255 255 255 255 251 252 250 252 255 133 255 255 32 200 176 39 158 0 26 241 22 33 246 24 32 236 25 35 242 25 38 232 30 35 236 26 36 236 26 36 237 26 36 232 30 35 244 22 34 248 20 35 245 30 27 171 39 54 154 85 149 255 255 255 255 255 
255 255 255 255 255 255 255 255 255 255 255 255 255 255 255 255 255 255 255 255 255 255 255 255 255 255 255 255 255 255 255 255 255 255 255 255 255 255 255 255 255 255 254 255 255 253 255 255 253 255 255 254 255 255 255 255 255 255 255 255 255 255 255 255 255 255 255 255 255 255 255 255 53 255 255 73 244 252 62 185 115 43 165 11 51 241 29 27 239 28 38 232 29 32 237 27 36 236 26 37 235 27 34 236 26 33 237 26 35 236 27 34 240 25 35 236 27 37 229 31 41 235 26 30 243 22 24 203 42 132 179 140 255 255 255 
255 255 255 255 255 255 255 255 255 255 255 255 255 255 255 255 255 255 255 255 255 255 255 255 255 255 255 255 255 255 255 255 255 255 255 255 255 255 255 255 255 255 255 254 254 255 253 253 255 255 253 255 253 253 255 251 255 255 253 254 255 254 252 255 254 254 87 255 255 49 255 255 126 125 37 192 167 73 190 150 68 190 138 41 30 235 29 48 240 27 54 240 22 45 239 27 31 231 32 18 242 27 27 242 25 43 234 29 31 238 26 35 233 28 37 233 28 36 239 25 39 235 26 30 240 26 40 225 9 129 177 122 255 255 255 
255 255 255 255 255 255 255 255 255 255 255 255 255 255 255 255 255 255 255 255 255 255 255 255 255 255 255 255 255 255 255 255 255 255 255 255 255 255 255 255 255 255 255 254 254 255 252 254 255 251 255 255 251 254 255 254 252 211 255 255 5 255 255 63 251 255 150 157 68 192 141 33 181 200 145 171 250 249 168 249 246 180 246 223 162 138 24 7 236 35 18 238 30 21 230 35 10 223 23 142 206 14 219 212 4 77 245 22 37 244 24 32 240 25 38 238 26 39 235 27 38 237 26 33 240 26 10 222 23 235 168 123 255 255 255 
255 255 255 255 255 255 255 255 255 255 255 255 255 255 255 255 255 255 255 255 255 255 255 255 255 255 255 254 255 255 253 255 255 253 255 255 255 255 255 255 255 255 160 255 255 4 255 255 11 255 255 53 255 255 97 255 255 64 223 206 186 110 0 188 160 59 177 212 184 169 255 245 175 247 234 177 236 229 174 241 227 184 247 240 37 217 171 40 150 0 36 159 13 31 158 11 41 154 0 84 175 128 232 231 224 255 138 63 193 182 25 95 236 21 17 237 27 32 235 27 39 237 26 37 240 29 5 172 0 255 240 233 255 255 255 
255 255 255 255 255 255 255 255 255 255 255 255 255 255 255 255 255 255 255 255 255 255 255 255 255 252 255 255 254 255 255 255 255 255 252 255 121 255 255 6 251 252 74 195 150 49 118 0 34 146 0 41 145 42 82 156 82 194 157 59 168 248 240 177 250 244 177 247 231 177 233 229 174 233 229 172 244 223 180 237 230 134 246 239 27 118 36 41 214 19 33 251 26 34 245 31 44 238 24 0 148 69 184 238 232 255 255 255 255 207 185 255 200 83 180 196 9 53 245 20 28 241 24 33 241 29 7 159 0 255 248 253 255 255 255 
255 255 255 255 255 255 255 255 255 255 255 255 255 255 255 255 255 255 255 255 255 255 255 254 251 255 253 255 255 254 255 254 255 95 255 255 29 168 106 40 114 0 33 184 60 33 243 34 31 253 24 37 227 26 27 168 77 183 248 253 184 235 234 185 237 228 177 238 227 176 239 226 181 241 226 191 239 227 193 235 242 58 208 159 33 179 11 35 242 28 34 242 25 35 238 26 37 240 30 66 110 0 78 206 175 255 255 255 255 255 255 248 255 255 255 220 176 111 221 44 55 232 25 26 244 28 1 160 0 255 246 254 255 255 255 
255 255 255 255 255 255 255 255 255 255 255 255 255 255 255 254 255 255 254 255 255 255 255 255 255 248 254 174 254 255 27 255 255 52 146 81 39 154 12 37 238 27 33 247 20 36 238 25 39 234 28 37 246 25 36 144 21 10 240 222 119 249 240 100 244 237 190 238 228 201 238 227 116 247 235 49 249 244 54 250 241 15 148 66 29 204 18 34 240 30 40 234 29 37 240 25 39 236 24 32 222 56 36 153 64 13 255 255 209 253 255 255 250 253 255 255 255 255 163 94 40 222 43 54 253 23 0 172 0 255 247 251 255 255 255 
255 255 255 255 255 255 255 255 255 255 255 255 255 254 255 255 254 255 255 254 255 244 255 255 70 255 255 40 201 171 39 130 12 32 216 44 35 245 25 35 236 28 36 231 29 35 237 26 35 238 26 34 241 28 8 182 17 178 104 1 141 197 140 115 188 131 45 255 234 42 254 255 145 190 135 255 132 44 255 138 36 154 128 0 21 190 16 55 224 32 32 243 24 37 233 28 33 241 25 31 239 25 34 211 27 35 124 0 163 220 200 255 255 255 255 253 254 255 250 255 255 128 18 39 227 46 21 168 0 220 249 252 255 255 255 
255 255 255 255 255 255 255 255 255 255 255 255 254 254 254 255 255 252 255 254 255 65 242 238 29 134 58 34 183 19 33 239 31 35 241 23 36 237 26 36 237 26 36 237 26 36 237 27 36 236 27 37 244 28 10 178 0 168 231 207 173 213 166 176 190 139 174 133 46 56 148 33 255 194 133 252 255 255 255 255 255 255 194 147 211 151 9 15 245 40 4 247 26 33 237 27 21 241 26 19 236 29 29 241 27 0 208 23 255 187 153 255 255 255 255 255 255 255 255 255 255 255 255 255 131 24 255 127 2 255 229 224 255 255 255 
255 255 255 255 255 255 255 255 255 255 255 255 253 255 254 255 248 255 154 255 255 19 135 48 37 225 28 38 243 25 39 235 28 36 238 26 35 236 26 36 237 27 36 237 27 36 237 27 36 236 27 36 244 28 9 177 0 174 227 215 177 242 240 176 254 239 187 242 211 57 135 35 255 255 255 255 250 251 255 255 255 253 255 255 255 223 203 255 123 0 241 164 0 143 217 23 149 220 9 147 222 8 139 222 12 218 129 0 255 255 255 254 251 255 255 255 255 255 255 255 253 255 255 255 255 255 255 255 255 253 255 254 255 255 255 
255 255 255 255 255 255 255 255 255 251 255 255 255 254 255 154 255 255 20 181 148 42 179 6 35 245 26 35 241 25 35 228 31 35 236 26 36 237 26 36 237 27 36 237 27 36 237 27 35 236 26 37 243 28 10 176 0 162 233 209 176 241 231 177 237 228 183 244 249 71 150 59 174 255 255 255 253 254 255 254 254 255 252 252 255 255 255 255 255 255 255 242 237 255 177 130 255 184 138 255 182 142 255 179 131 255 228 212 255 251 255 255 252 255 255 255 255 255 255 255 255 254 255 255 253 254 255 252 255 255 251 254 255 255 255 
255 255 255 254 253 255 255 255 251 255 246 255 161 255 255 22 179 143 49 163 9 30 244 29 36 237 26 36 237 27 36 236 26 36 237 26 36 237 27 36 237 27 36 237 27 36 237 27 36 237 26 34 240 28 43 183 1 31 220 193 191 236 236 175 240 227 179 245 240 125 167 92 176 203 165 255 255 255 255 252 255 238 255 255 187 255 255 172 255 255 234 255 255 255 255 255 254 255 255 255 255 255 255 255 255 255 255 255 255 255 255 255 255 255 255 255 255 255 255 255 255 255 255 255 255 255 255 255 255 255 254 255 255 255 255 
255 255 255 253 253 255 255 252 255 255 253 255 6 198 158 43 170 6 29 243 39 34 241 26 36 236 27 36 236 26 36 237 27 36 237 27 36 237 27 36 237 27 36 237 27 36 237 27 36 237 26 33 235 27 38 245 24 40 148 34 197 253 245 176 241 226 180 240 238 104 210 148 143 201 175 154 255 255 53 255 255 4 237 231 12 210 184 18 202 164 36 238 228 221 255 255 255 251 252 255 254 253 255 255 255 255 255 255 255 255 255 255 255 255 255 255 255 255 255 255 255 255 255 255 255 255 255 255 255 255 255 255 255 255 255 
255 255 255 254 255 255 255 253 255 90 255 252 46 130 0 33 240 36 34 245 22 37 231 29 35 236 27 36 237 26 36 237 27 36 237 27 36 237 27 36 237 27 36 237 27 36 237 27 35 237 26 36 235 28 35 245 22 57 158 43 187 246 247 176 242 225 174 237 240 181 190 129 0 181 129 27 182 144 35 141 39 49 158 0 24 202 5 61 208 4 44 131 19 21 232 218 38 255 255 138 255 255 241 255 255 255 255 255 254 255 255 254 255 255 255 255 255 255 255 255 255 255 255 255 255 255 255 255 255 255 255 255 255 255 255 
255 255 255 255 249 255 212 255 255 12 149 76 41 198 32 35 241 25 36 241 25 35 238 26 36 236 27 36 237 27 36 237 27 36 237 27 36 237 27 36 237 27 36 237 27 36 237 27 35 236 27 38 237 25 22 248 26 92 155 54 181 251 245 176 239 227 172 238 231 202 246 222 3 122 0 64 214 16 23 248 26 29 255 32 42 162 26 58 235 44 39 235 36 7 154 11 50 130 17 6 181 130 165 240 238 255 252 255 254 252 255 254 255 255 255 255 255 255 255 255 255 255 255 255 255 255 255 255 255 255 255 255 255 255 255 
255 255 255 255 255 255 115 219 206 36 152 0 31 247 27 36 237 26 36 236 27 36 236 27 36 237 27 36 237 27 36 237 27 36 237 27 36 237 27 36 237 27 36 237 27 36 237 27 35 237 26 38 237 26 22 229 21 92 170 92 181 243 246 176 237 228 171 241 227 199 255 249 16 153 0 15 247 46 72 168 17 37 128 14 42 129 15 38 137 41 103 164 29 190 149 0 48 186 44 57 193 0 99 192 155 255 255 255 255 249 255 255 255 254 255 255 255 255 255 255 255 255 255 255 255 255 255 255 255 255 255 255 255 255 255 
255 255 255 255 255 255 16 162 111 42 221 24 32 236 28 36 237 26 36 237 27 36 236 27 33 236 27 33 237 26 35 237 26 34 236 26 33 237 26 32 237 26 33 237 26 36 237 27 36 236 27 35 239 26 27 227 20 87 167 94 183 244 244 176 235 229 175 243 224 194 253 250 18 122 0 51 115 3 28 172 57 37 242 21 24 247 36 45 176 26 34 170 88 37 200 182 64 131 33 10 204 38 205 162 89 255 255 255 255 248 254 255 255 253 255 255 255 255 255 255 255 255 255 255 255 255 255 255 255 255 255 255 255 255 255 
255 255 255 171 255 255 11 140 9 40 251 24 32 231 29 36 237 26 35 236 27 36 237 27 41 242 25 38 235 28 35 232 30 35 238 26 37 235 28 39 233 29 38 236 27 35 237 26 36 236 26 33 238 27 32 233 17 84 169 95 186 248 241 176 237 227 176 242 226 189 248 249 76 126 5 30 217 43 37 238 34 34 251 23 120 152 19 116 219 25 12 228 32 26 178 21 46 160 55 8 127 0 210 230 200 255 250 255 255 253 253 255 255 254 255 255 255 255 255 255 255 255 255 255 255 255 255 255 255 255 255 255 255 255 255 
255 255 255 128 197 162 27 188 2 38 241 27 33 239 26 36 236 27 36 237 26 36 236 27 24 231 29 34 238 25 43 246 22 49 235 29 43 243 23 35 240 24 31 234 28 36 237 26 35 237 26 33 236 28 32 234 15 84 171 95 185 246 242 176 239 226 177 238 226 183 247 245 125 164 79 34 231 18 24 249 29 163 176 22 255 171 104 255 158 107 54 181 8 35 255 22 32 241 39 106 146 0 255 211 200 254 255 255 255 255 253 255 255 255 255 255 255 255 255 255 255 255 255 255 255 255 255 255 255 255 255 255 255 255 255 
255 255 255 130 183 115 22 230 13 37 232 30 34 242 24 35 236 27 35 237 26 35 236 27 52 237 30 19 254 26 0 251 33 0 251 34 0 251 32 13 255 29 50 245 24 31 236 27 40 236 27 29 236 28 32 233 16 84 170 96 185 247 242 176 239 226 177 239 227 184 243 237 112 195 150 45 205 15 222 164 2 255 186 164 14 255 255 228 255 255 255 131 29 255 155 14 255 150 11 255 162 91 254 255 255 253 253 255 255 255 253 255 254 255 255 255 255 255 255 255 255 255 255 255 255 255 255 255 255 255 255 255 255 255 255 
255 255 255 131 178 122 24 222 15 37 239 26 34 235 28 35 237 26 33 236 29 45 248 23 0 244 33 80 114 10 228 0 0 255 0 0 233 0 0 95 102 10 0 229 36 37 248 26 40 240 24 29 237 29 32 234 15 84 171 95 185 247 242 176 239 227 177 238 227 180 244 237 147 196 142 157 136 33 192 230 210 65 255 255 54 99 0 29 242 229 164 255 255 255 255 255 255 255 255 255 255 255 255 250 255 255 250 253 255 255 253 255 254 255 255 255 255 255 255 255 255 255 255 255 255 255 255 255 255 255 255 255 255 255 255 
255 255 255 131 184 120 24 221 16 37 242 25 34 234 28 32 243 24 45 243 26 0 229 35 115 6 0 255 58 81 255 226 223 255 255 255 255 225 234 255 86 94 163 0 0 0 221 37 42 229 32 38 237 28 31 233 16 84 170 96 185 247 242 176 239 226 177 238 227 179 241 233 167 217 180 21 184 133 13 214 182 46 140 57 7 210 36 24 141 18 28 187 159 36 255 255 159 252 255 255 252 254 255 255 255 255 255 255 255 255 255 255 255 255 255 255 255 255 255 255 255 255 255 255 255 255 255 255 255 255 255 255 255 255 255 
255 255 255 131 184 120 24 221 16 37 241 25 34 238 26 32 241 25 43 252 29 0 49 0 255 98 113 253 255 255 220 255 255 84 255 255 255 255 255 255 255 255 255 145 157 19 10 0 32 255 28 29 237 26 32 234 15 84 171 95 185 247 242 176 239 227 177 238 227 177 240 230 193 236 211 66 138 9 32 207 4 82 232 28 217 171 0 179 182 11 19 193 11 35 147 14 62 191 154 255 255 255 255 255 255 255 255 255 255 255 255 255 255 255 255 255 255 255 255 255 255 255 255 255 255 255 255 255 255 255 255 255 255 255 255 
255 255 255 131 184 120 24 221 16 37 241 26 34 241 25 37 235 30 31 227 30 45 0 0 255 255 255 255 255 255 127 224 225 0 85 84 233 255 255 255 255 255 255 255 255 70 0 14 26 184 28 29 247 28 32 233 16 84 170 96 185 247 242 175 239 226 173 238 226 175 239 226 182 247 249 109 162 64 162 153 17 255 156 67 255 217 220 255 208 168 228 147 8 208 164 20 255 133 45 255 255 255 255 255 255 255 255 255 255 255 255 255 255 255 255 255 255 255 255 255 255 255 255 255 255 255 255 255 255 255 255 255 255 255 255 
255 255 255 131 184 120 24 221 16 37 241 25 33 241 25 33 241 28 50 187 17 0 27 47 255 255 255 254 255 255 253 127 127 179 0 0 255 233 234 253 255 255 255 255 255 8 57 69 38 164 15 35 246 29 32 234 15 84 171 95 185 247 242 168 239 226 183 239 228 170 238 226 172 244 237 189 188 136 62 201 145 255 255 255 255 255 255 254 255 255 255 235 218 255 222 203 254 255 255 255 255 255 255 255 255 255 255 255 255 255 255 255 255 255 255 255 255 255 255 255 255 255 255 255 255 255 255 255 255 255 255 255 255 255 255 
255 255 255 131 184 120 24 221 16 37 241 26 34 241 25 31 235 30 42 223 34 2 0 0 102 255 255 255 254 254 255 253 253 255 179 179 255 255 255 255 254 254 127 255 255 0 0 15 34 218 20 32 237 29 32 234 16 81 170 96 185 247 242 180 238 228 127 245 234 185 238 228 174 243 229 143 249 228 130 124 49 255 255 255 255 253 255 255 249 255 255 252 255 255 251 255 255 255 252 253 250 255 255 254 255 255 255 255 255 255 255 255 255 255 255 255 255 255 255 255 255 255 255 255 255 255 255 255 255 255 255 255 255 255 255 
255 255 255 131 184 120 24 221 16 37 241 25 33 239 26 36 226 33 34 255 24 40 51 0 0 89 103 68 255 255 211 255 255 247 255 255 222 255 255 81 255 255 0 113 129 44 41 0 31 248 35 38 239 27 30 236 16 112 169 91 182 247 242 193 245 233 38 170 154 190 245 233 173 243 234 179 218 180 74 180 123 255 255 255 255 255 254 255 255 253 255 255 252 255 253 251 255 251 254 255 253 254 255 255 254 255 255 255 255 255 255 255 255 255 255 255 255 255 255 255 255 255 255 255 255 255 255 255 255 255 255 255 255 255 255 
255 255 255 132 181 120 24 220 16 37 241 25 33 235 28 36 239 26 36 236 26 36 237 36 38 2 0 22 48 68 0 208 215 0 247 255 0 216 221 17 64 80 47 0 0 30 222 32 31 242 27 39 243 25 11 192 11 179 183 138 176 248 237 193 249 240 45 55 49 190 255 242 173 242 228 191 247 230 74 155 59 255 255 255 255 255 255 255 255 255 255 255 255 255 254 255 255 254 255 255 255 255 255 255 255 255 255 255 255 255 255 255 255 255 255 255 255 255 255 255 255 255 255 255 255 255 255 255 255 255 255 255 255 255 255 
255 255 255 128 186 120 28 228 13 37 244 23 33 234 29 36 239 26 35 235 28 36 238 29 38 250 36 36 119 14 37 23 0 42 0 0 44 0 0 33 117 11 29 245 30 35 255 19 35 235 29 36 243 27 13 168 0 173 234 213 176 238 234 193 249 240 45 64 59 190 255 242 179 235 231 110 255 231 178 141 59 255 255 255 255 255 255 255 255 255 255 255 255 255 255 255 255 255 255 255 255 255 255 255 255 255 255 255 255 255 255 255 255 255 255 255 255 255 255 255 255 255 255 255 255 255 255 255 255 255 255 255 255 255 255 
255 255 255 174 177 119 21 217 23 38 241 25 34 235 28 36 238 26 36 238 26 35 240 25 33 241 25 33 250 26 35 255 28 33 252 33 35 255 27 37 249 29 37 236 30 38 230 30 37 236 27 35 244 28 10 172 0 170 227 209 174 242 231 194 249 241 45 64 59 190 255 242 178 244 238 104 187 130 199 215 172 255 255 255 255 255 255 255 255 255 255 255 255 255 255 255 255 255 255 255 255 255 255 255 255 255 255 255 255 255 255 255 255 255 255 255 255 255 255 255 255 255 255 255 255 255 255 255 255 255 255 255 255 255 255 
255 255 255 195 196 168 12 207 11 38 238 28 35 236 27 36 236 26 36 237 27 36 238 26 36 234 29 36 233 29 36 237 27 36 232 30 36 235 27 35 238 26 35 238 25 35 237 26 35 238 25 36 242 29 8 172 0 170 228 209 173 243 231 193 249 240 45 64 59 190 255 242 179 246 236 102 192 128 200 217 189 255 255 255 255 255 255 255 255 255 255 255 255 255 255 255 255 255 255 255 255 255 255 255 255 255 255 255 255 255 255 255 255 255 255 255 255 255 255 255 255 255 255 255 255 255 255 255 255 255 255 255 255 255 255 
255 255 255 194 205 188 13 202 0 38 236 30 35 236 27 36 237 26 36 236 27 36 236 27 36 237 26 36 237 26 36 237 26 36 237 26 36 237 26 36 236 27 36 236 27 36 236 27 36 236 27 36 245 27 8 171 0 169 227 209 173 242 232 194 249 240 45 64 59 191 255 242 178 244 237 102 191 130 200 215 188 255 255 255 255 255 255 255 255 255 255 255 255 255 255 255 255 255 255 255 255 255 255 255 255 255 255 255 255 255 255 255 255 255 255 255 255 255 255 255 255 255 255 255 255 255 255 255 255 255 255 255 255 255 255 
255 255 255 193 205 187 12 204 0 37 236 30 35 236 27 36 237 26 36 237 27 36 237 27 36 237 27 34 237 27 34 236 27 34 236 27 34 236 27 35 237 27 36 237 27 36 237 27 36 236 27 35 245 28 10 171 0 176 227 209 172 242 232 190 249 240 42 64 60 186 255 242 181 245 237 111 191 130 193 215 188 255 255 255 255 255 255 255 255 255 255 255 255 255 255 255 255 255 255 255 255 255 255 255 255 255 255 255 255 255 255 255 255 255 255 255 255 255 255 255 255 255 255 255 255 255 255 255 255 255 255 255 255 255 255 
255 255 255 193 205 187 8 196 1 37 240 27 35 235 28 36 237 26 36 237 27 36 236 27 36 236 27 35 236 26 35 239 26 36 240 26 35 237 26 36 236 27 36 236 27 36 237 27 36 236 27 34 247 26 23 166 0 161 231 211 175 241 233 188 252 241 51 56 49 182 255 244 186 242 240 61 194 129 230 213 184 255 255 255 255 255 255 255 255 255 255 255 255 255 255 255 255 255 255 255 255 255 255 255 255 255 255 255 255 255 255 255 255 255 255 255 255 255 255 255 255 255 255 255 255 255 255 255 255 255 255 255 255 255 255 
255 255 255 139 211 186 14 192 2 37 244 26 35 236 27 36 237 26 36 236 27 36 237 27 33 240 25 38 235 27 46 228 31 48 228 31 41 232 29 34 239 26 34 238 26 36 236 27 36 236 27 31 247 25 47 183 9 78 219 186 187 239 236 189 255 244 53 61 52 182 255 246 190 247 242 52 149 66 255 240 228 255 254 255 255 255 255 255 255 255 255 255 255 255 255 255 255 255 255 255 255 255 255 255 255 255 255 255 255 255 255 255 255 255 255 255 255 255 255 255 255 255 255 255 255 255 255 255 255 255 255 255 255 255 255 
255 255 255 137 175 127 19 207 5 35 241 27 36 236 27 35 237 26 34 237 26 33 236 27 41 231 30 44 252 20 12 255 22 8 255 24 27 255 20 49 240 25 33 231 29 32 237 26 35 236 26 31 238 26 36 229 25 84 161 94 190 244 242 187 255 244 52 62 53 184 255 247 188 250 241 58 144 46 255 255 255 255 253 254 255 255 255 255 255 255 255 255 255 255 255 255 255 255 255 255 255 255 255 255 255 255 255 255 255 255 255 255 255 255 255 255 255 255 255 255 255 255 255 255 255 255 255 255 255 255 255 255 255 255 255 
255 255 255 137 178 122 8 206 7 36 241 27 35 236 27 32 237 27 30 235 28 46 241 25 8 255 25 0 205 33 100 115 10 126 104 9 38 155 22 0 249 33 40 253 21 34 234 28 32 238 26 35 235 28 31 236 15 84 174 94 184 244 242 190 255 244 48 58 53 197 255 246 182 244 244 59 154 54 255 253 255 255 255 253 255 255 255 255 255 255 255 255 255 255 255 255 255 255 255 255 255 255 255 255 255 255 255 255 255 255 255 255 255 255 255 255 255 255 255 255 255 255 255 255 255 255 255 255 255 255 255 255 255 255 255 
255 255 255 132 183 123 18 161 0 44 250 26 33 235 28 33 238 27 45 244 24 11 243 36 54 82 5 255 0 0 255 87 103 255 115 132 255 23 39 197 0 0 0 187 37 52 254 23 33 238 27 33 233 30 32 234 15 84 170 95 185 247 242 189 255 244 60 52 53 195 253 244 183 249 242 59 154 71 255 255 253 255 255 255 255 255 255 255 255 255 255 255 255 255 255 255 255 255 255 255 255 255 255 255 255 255 255 255 255 255 255 255 255 255 255 255 255 255 255 255 255 255 255 255 255 255 255 255 255 255 255 255 255 255 255 
255 255 255 160 179 121 5 160 5 45 245 28 34 233 28 34 239 27 44 255 27 0 86 4 255 35 59 253 255 255 255 255 255 255 255 255 255 255 255 255 190 193 137 0 0 2 229 27 37 239 29 31 234 29 32 234 16 84 170 96 185 247 242 168 253 240 193 85 76 170 253 242 183 248 243 59 154 70 255 255 253 255 255 255 255 255 255 255 255 255 255 255 255 255 255 255 255 255 255 255 255 255 255 255 255 255 255 255 255 255 255 255 255 255 255 255 255 255 255 255 255 255 255 255 255 255 255 255 255 255 255 255 255 255 255 
255 255 255 159 201 153 46 127 0 40 230 28 33 233 30 34 245 24 22 215 32 84 0 0 255 255 255 255 253 253 172 255 255 0 255 255 209 255 255 255 255 255 234 121 132 0 56 2 46 255 25 32 240 27 32 233 15 84 171 95 186 247 242 177 238 229 176 255 240 177 239 228 184 248 243 65 154 71 253 255 254 255 255 255 255 255 255 255 255 255 255 255 255 255 255 255 255 255 255 255 255 255 255 255 255 255 255 255 255 255 255 255 255 255 255 255 255 255 255 255 255 255 255 255 255 255 255 255 255 255 255 255 255 255 255 
255 255 255 255 193 150 23 131 32 21 202 26 40 241 29 39 246 29 18 135 12 93 69 94 255 255 255 255 255 255 99 172 172 17 0 0 255 210 210 255 255 255 241 234 237 0 0 0 46 253 32 38 235 29 31 233 16 84 170 96 185 247 242 176 239 226 177 238 227 176 238 226 194 248 241 38 151 73 255 255 253 255 255 254 255 255 255 255 255 255 255 255 255 255 255 255 255 255 255 255 255 255 255 255 255 255 255 255 255 255 255 255 255 255 255 255 255 255 255 255 255 255 255 255 255 255 255 255 255 255 255 255 255 255 255 
255 255 255 255 255 255 150 129 0 0 151 15 45 246 28 26 254 24 43 121 13 0 75 94 255 255 255 254 255 255 255 99 99 255 17 17 253 255 255 255 255 255 123 233 241 8 0 0 29 238 39 35 244 23 32 233 15 84 171 95 185 247 242 177 239 227 177 238 227 180 238 227 151 253 248 116 119 27 255 255 255 252 251 255 255 255 255 255 255 255 255 255 255 255 255 255 255 255 255 255 255 255 255 255 255 255 255 255 255 255 255 255 255 255 255 255 255 255 255 255 255 255 255 255 255 255 255 255 255 255 255 255 255 255 255 
255 255 255 255 255 255 200 190 139 0 125 0 44 247 27 29 237 31 45 220 29 6 0 0 73 255 255 255 254 254 255 255 255 255 255 255 255 253 253 215 255 255 0 111 125 49 71 3 30 255 29 32 237 28 32 233 16 84 170 96 185 247 242 173 238 227 176 238 227 187 240 232 54 225 191 244 175 98 255 255 255 252 255 253 255 255 255 207 255 255 235 255 255 255 255 255 255 255 255 252 255 255 254 255 255 255 255 255 255 255 255 255 255 255 255 255 255 255 255 255 255 255 255 255 255 255 255 255 255 255 255 255 255 255 255 
255 255 255 255 255 255 255 210 191 17 119 0 40 238 33 33 236 28 30 255 28 48 65 4 5 61 71 0 255 255 114 255 255 148 255 255 50 255 255 0 208 213 45 0 0 36 205 33 30 247 25 35 237 28 32 234 15 84 171 95 186 247 242 174 241 226 174 238 226 205 252 240 31 149 64 23 241 237 103 255 255 255 248 255 117 255 255 28 221 202 25 238 231 118 255 255 255 253 250 254 253 254 255 254 255 255 255 255 255 255 255 255 255 255 255 255 255 255 255 255 255 255 255 255 255 255 255 255 255 255 255 255 255 255 255 
255 255 255 252 252 255 255 255 255 35 123 0 40 228 24 33 236 29 32 250 22 31 250 33 35 60 0 38 0 2 17 102 114 9 139 141 30 33 56 43 0 0 29 180 32 32 255 22 33 236 28 32 239 27 32 233 16 84 170 96 186 246 242 176 242 225 178 234 231 134 255 250 28 142 16 26 141 15 41 164 92 0 246 249 33 172 111 23 169 7 50 140 12 193 163 113 255 255 255 253 253 254 254 255 255 255 255 255 255 255 255 255 255 255 255 255 255 255 255 255 255 255 255 255 255 255 255 255 255 255 255 255 255 255 255 
255 255 255 254 255 255 255 255 255 111 123 15 15 206 29 33 245 25 37 227 32 35 235 29 38 255 31 34 201 30 32 113 8 32 88 0 33 157 21 36 247 37 37 248 27 36 227 32 36 235 28 31 240 26 30 234 15 82 171 95 183 246 242 174 239 227 178 242 238 104 204 156 192 153 12 176 214 7 34 214 32 57 160 0 33 187 22 203 178 2 255 143 36 255 217 179 252 255 255 250 252 254 254 255 255 255 255 255 255 255 255 255 255 255 255 255 255 255 255 255 255 255 255 255 255 255 255 255 255 255 255 255 255 255 255 
255 255 255 255 254 253 255 255 255 138 176 96 14 170 4 38 242 29 34 239 25 36 243 24 35 237 26 36 242 26 36 252 27 36 255 27 36 247 27 35 238 26 35 240 25 35 237 26 36 238 26 33 235 29 30 231 17 82 173 95 184 238 246 173 240 226 184 242 239 68 190 114 83 213 188 255 198 166 230 147 21 21 214 44 255 141 21 255 216 204 255 255 255 255 251 255 255 254 254 255 251 254 255 255 255 255 255 255 255 255 255 255 255 255 255 255 255 255 255 255 255 255 255 255 255 255 255 255 255 255 255 255 255 255 255 
255 255 255 255 255 254 255 255 255 222 180 128 0 159 0 45 247 28 30 237 27 38 233 28 36 237 26 35 237 27 36 236 26 36 236 27 36 236 26 36 237 27 36 236 27 36 237 27 36 236 26 33 239 26 35 233 16 83 174 93 187 244 244 173 242 226 183 245 245 79 163 76 52 156 69 23 253 255 213 232 225 255 107 0 255 255 255 27 255 255 31 255 255 27 255 255 157 255 255 255 253 255 255 255 255 255 255 255 255 255 255 255 255 255 255 255 255 255 255 255 255 255 255 255 255 255 255 255 255 255 255 255 255 255 255 
255 255 255 255 252 254 255 255 255 255 234 219 33 117 0 40 239 27 28 234 30 40 236 27 36 237 26 35 236 27 36 237 27 36 237 27 36 237 27 36 237 27 36 237 27 36 237 27 35 236 27 35 238 26 35 230 19 124 166 91 183 247 240 174 242 225 193 244 246 30 172 85 33 227 30 36 151 5 29 224 211 164 255 255 73 255 255 26 120 5 27 150 25 54 126 15 7 192 149 255 255 255 255 255 255 255 255 255 255 255 255 255 255 255 255 255 255 255 255 255 255 255 255 255 255 255 255 255 255 255 255 255 255 255 255 
255 255 255 255 250 254 255 254 251 255 255 255 153 124 12 29 222 24 31 239 26 33 238 25 36 237 26 36 236 27 36 237 27 36 237 27 36 237 27 36 237 27 36 237 27 36 237 27 35 237 26 40 239 26 25 191 17 201 194 151 175 243 236 175 241 226 174 248 251 11 149 26 58 248 22 30 217 42 46 158 12 14 193 148 40 139 59 35 208 21 37 255 18 50 244 41 37 115 0 237 249 255 255 255 255 255 255 255 255 255 255 255 255 255 255 255 255 255 255 255 255 255 255 255 255 255 255 255 255 255 255 255 255 255 255 
255 255 255 255 251 255 255 255 252 255 252 255 210 194 142 0 210 13 54 245 27 30 235 28 35 237 26 35 237 27 35 237 27 36 237 27 36 237 27 36 237 27 35 237 27 36 237 27 35 237 26 40 239 28 88 134 13 189 255 252 178 234 229 176 242 230 156 234 215 26 131 0 17 230 43 66 247 20 42 241 34 53 141 11 39 221 34 132 231 26 177 168 29 34 143 41 39 137 18 165 236 235 255 255 255 255 255 255 255 255 255 255 255 255 255 255 255 255 255 255 255 255 255 255 255 255 255 255 255 255 255 255 255 255 255 
255 255 255 253 255 254 253 254 254 255 255 255 255 220 208 124 116 0 16 228 45 43 238 28 35 237 26 37 237 26 35 237 26 35 237 27 36 237 27 35 237 27 36 237 27 35 237 26 36 238 26 21 227 23 127 168 105 183 244 243 179 235 228 178 245 232 155 222 190 27 141 0 62 113 11 25 193 55 29 238 27 43 239 36 53 165 28 34 169 129 8 196 156 71 131 16 0 204 17 233 193 159 255 255 255 255 255 255 255 255 255 255 255 255 255 255 255 255 255 255 255 255 255 255 255 255 255 255 255 255 255 255 255 255 255 
255 255 255 255 255 254 255 254 255 255 255 252 255 255 255 245 163 102 12 148 0 55 244 30 33 238 26 36 235 27 37 235 27 36 237 26 35 237 27 35 237 27 38 236 27 33 236 27 36 241 27 31 202 1 131 196 159 180 240 237 176 243 224 178 244 230 141 211 202 0 188 9 31 228 35 34 146 13 46 146 12 31 134 25 61 142 40 40 171 11 23 134 0 32 212 61 172 155 0 255 233 225 255 255 255 255 252 255 253 255 254 254 255 254 255 255 255 255 255 255 255 255 255 255 255 255 255 255 255 255 255 255 255 255 255 
255 255 255 255 255 255 255 255 255 255 255 255 254 255 255 255 252 240 171 103 0 0 187 49 40 247 24 31 237 26 36 235 28 37 236 27 35 237 26 35 236 27 38 239 25 33 233 29 38 247 24 7 204 10 180 196 166 176 244 235 176 239 226 180 240 237 61 211 167 190 143 0 130 237 15 31 255 28 10 223 41 22 169 21 28 236 52 59 231 29 255 158 9 255 133 13 255 200 161 255 247 254 255 255 254 253 255 251 255 252 254 255 254 255 255 255 255 255 255 255 255 255 255 255 255 255 255 255 255 255 255 255 255 255 255 
255 255 255 255 255 255 255 255 255 255 255 255 253 255 254 255 255 255 255 209 154 149 117 0 25 223 36 41 243 25 34 241 24 36 236 27 37 237 27 35 236 27 38 239 25 33 233 29 38 244 28 9 177 0 176 236 216 177 239 232 177 242 225 188 245 242 38 159 68 255 205 173 255 169 116 255 134 15 232 176 0 184 216 2 141 195 17 181 133 50 89 255 255 97 255 255 94 255 255 84 255 255 167 247 255 255 252 253 255 254 254 254 254 254 255 255 255 255 255 255 255 255 255 255 255 255 255 255 255 255 255 255 255 255 255 
255 255 255 255 255 255 255 255 255 255 255 255 255 254 255 255 255 255 255 248 255 255 183 138 225 125 8 29 235 32 38 240 26 34 235 27 38 236 27 37 235 27 34 240 24 42 233 29 31 241 30 5 173 0 175 229 214 185 236 233 190 242 226 159 250 250 75 148 48 255 255 255 255 255 255 255 251 254 255 234 230 182 197 184 25 171 124 14 204 179 42 151 79 28 155 80 31 155 78 33 155 74 9 200 152 249 255 255 254 253 254 252 255 253 252 255 255 255 255 255 255 254 255 255 255 255 255 255 255 254 255 254 255 255 255 
255 255 255 255 255 255 255 255 255 255 255 255 255 255 255 255 255 255 255 255 255 255 255 255 255 237 222 218 131 9 2 218 35 44 242 26 28 240 25 32 232 29 33 245 23 39 231 28 33 239 32 14 181 0 154 226 223 87 255 238 65 243 250 51 225 188 73 143 50 92 255 255 254 252 254 255 255 255 113 255 255 11 204 177 46 159 5 31 198 1 37 241 30 35 244 18 27 240 20 32 248 20 17 134 0 149 249 239 255 251 255 251 255 254 255 253 253 248 255 255 0 255 255 0 255 255 224 255 252 255 250 252 255 255 255 
255 255 255 255 255 255 255 255 255 255 255 255 255 255 255 255 255 255 255 255 255 255 255 255 255 253 255 255 226 217 105 134 0 26 234 38 46 246 23 26 235 28 28 239 26 36 234 27 34 248 27 33 180 0 11 217 182 172 176 112 157 165 70 191 149 50 190 160 64 154 161 69 57 252 248 28 255 255 0 170 104 22 168 0 42 244 40 32 245 24 37 239 24 35 232 29 32 243 25 32 244 28 78 205 8 231 185 144 255 255 255 255 254 254 239 249 255 12 250 238 51 115 0 3 109 0 255 232 225 255 255 255 255 255 255 
255 255 255 255 255 255 255 255 255 255 255 255 255 255 255 255 255 255 255 255 255 255 254 255 255 254 253 255 255 255 255 171 96 62 152 6 22 246 34 43 240 27 34 237 28 31 235 27 40 240 32 35 176 17 207 104 0 175 232 204 179 218 196 175 250 242 173 250 250 179 218 194 184 157 68 204 127 22 91 115 0 41 171 10 36 233 31 40 227 32 35 230 30 32 241 24 61 243 27 102 182 21 255 147 65 255 235 230 251 255 255 255 255 255 93 241 227 54 130 0 30 254 47 5 174 0 255 246 255 255 253 255 255 255 255 
255 255 255 255 255 255 255 255 255 255 255 255 255 255 255 255 255 255 255 255 255 255 255 255 255 253 254 254 255 255 255 253 251 255 142 42 71 172 2 10 234 35 47 243 24 27 230 31 38 250 24 74 139 32 201 255 255 171 240 232 168 244 229 177 236 228 177 239 227 177 245 230 174 244 244 180 255 255 137 174 98 19 217 23 41 236 29 35 245 22 30 241 25 39 243 27 0 208 44 186 155 90 255 255 255 255 254 255 255 249 253 117 255 255 42 151 85 36 231 41 36 247 23 5 165 0 255 249 255 255 255 255 255 255 255 
255 255 255 255 255 255 255 255 255 255 255 255 255 255 255 255 255 255 255 255 255 255 255 255 255 255 254 255 253 254 255 255 255 255 255 255 255 138 59 236 134 0 44 235 31 57 241 24 106 217 18 153 161 71 31 255 255 169 246 233 193 240 227 184 239 226 176 238 227 177 238 227 176 243 224 173 231 243 195 206 163 68 162 3 35 225 27 39 237 28 42 243 26 39 219 37 116 107 0 255 207 183 255 255 255 133 255 255 52 255 255 29 198 110 31 227 26 33 237 23 36 235 31 4 165 0 255 250 255 255 255 255 255 255 255 
255 255 255 255 255 255 255 255 255 255 255 255 255 255 255 255 255 255 255 255 255 255 255 255 255 253 254 255 255 253 255 253 255 254 249 255 254 255 255 255 238 237 255 134 27 255 149 45 255 161 96 255 189 138 243 123 23 52 230 210 57 250 248 96 245 238 199 238 228 183 239 226 177 239 227 169 238 228 187 251 242 133 148 76 21 224 13 15 248 27 26 245 28 2 221 26 112 168 98 161 255 255 40 255 255 50 174 124 27 191 33 36 223 18 35 242 24 33 248 21 39 247 26 15 163 0 217 253 255 255 255 255 255 255 255 
255 255 255 255 255 255 255 255 255 255 255 255 255 255 255 255 255 255 255 255 255 255 255 255 255 253 255 255 255 252 255 255 254 255 253 253 255 253 253 255 255 255 255 255 255 255 255 255 255 255 255 255 255 255 255 254 236 255 129 37 255 150 46 154 176 118 50 255 238 76 245 241 196 234 230 196 242 226 164 241 249 32 190 145 40 145 9 31 161 10 41 153 13 40 133 0 28 168 105 26 193 160 36 141 27 35 216 31 35 241 23 35 246 23 36 235 29 36 232 29 35 241 27 30 175 6 130 227 214 255 255 255 255 255 255 
255 255 255 255 255 255 255 255 255 255 255 255 255 255 255 255 255 255 255 255 255 255 255 255 255 255 255 255 255 255 255 255 255 255 255 255 255 255 255 255 255 255 255 255 255 255 255 255 255 255 255 255 253 254 255 249 255 255 255 255 255 255 255 255 194 139 255 136 36 118 159 96 62 255 249 15 254 253 37 222 191 48 167 20 37 239 34 37 240 31 38 239 32 37 244 28 37 235 19 37 232 18 30 245 22 33 246 22 36 232 29 35 234 28 35 237 26 36 237 26 36 241 24 18 224 22 136 176 121 255 255 255 255 255 255 
255 255 255 255 255 255 255 255 255 255 255 255 255 255 255 255 255 255 255 255 255 255 255 255 255 255 255 255 255 255 255 255 255 255 255 255 255 255 255 255 255 255 255 255 255 255 255 255 255 255 255 254 254 254 251 250 252 252 253 253 253 255 255 252 252 255 255 255 255 255 167 98 255 149 53 203 114 7 29 156 23 35 236 29 31 237 26 33 240 25 31 238 25 30 235 28 30 241 25 31 244 23 38 230 32 35 235 28 32 237 26 40 237 26 35 237 26 29 236 27 36 244 24 48 220 9 176 182 126 255 255 255 255 255 255 
255 255 255 255 255 255 255 255 255 255 255 255 255 255 255 255 255 255 255 255 255 255 255 255 255 255 255 255 255 255 255 255 255 255 255 255 255 255 255 255 255 255 255 255 255 255 255 255 255 255 255 255 254 254 255 254 253 255 254 255 255 253 255 255 252 254 255 252 255 255 255 255 254 255 255 255 222 188 221 141 15 0 237 33 29 241 28 43 237 27 30 239 26 38 233 30 38 233 30 39 236 28 36 244 23 37 237 26 37 234 29 35 235 27 31 236 28 54 242 23 39 244 23 153 182 35 255 197 164 250 255 255 255 255 255 
255 255 255 255 255 255 255 255 255 255 255 255 255 255 255 255 255 255 255 255 255 255 255 255 255 255 255 255 255 255 255 255 255 255 255 255 255 255 255 255 255 255 255 255 255 255 255 255 255 255 255 255 255 255 255 255 255 255 255 255 255 255 255 255 255 255 255 255 255 255 255 255 255 255 255 255 255 255 255 233 212 177 141 0 148 221 9 53 233 30 48 242 23 32 238 26 31 237 26 26 235 27 31 239 26 30 236 27 31 234 27 40 243 22 37 241 23 80 232 41 244 145 32 255 188 143 255 255 255 251 249 255 255 255 255 
255 255 255 255 255 255 255 255 255 255 255 255 255 255 255 255 255 255 255 255 255 255 255 255 255 255 255 255 255 255 255 255 255 255 255 255 255 255 255 255 255 255 255 255 255 255 255 255 255 255 255 255 255 255 255 255 255 255 255 255 255 255 255 255 255 255 255 255 255 255 255 255 255 255 253 253 251 255 252 255 255 255 196 176 255 182 137 255 140 44 143 212 34 68 236 24 51 245 23 46 239 26 54 241 25 53 239 25 48 240 26 105 214 37 255 157 24 255 148 65 255 247 240 251 255 255 252 253 255 255 255 252 255 255 255 
255 255 255 255 255 255 255 255 255 255 255 255 255 255 255 255 255 255 255 255 255 255 255 255 255 255 255 255 255 255 255 255 255 255 255 255 255 255 255 255 255 255 255 255 255 255 255 255 255 255 255 255 255 255 255 255 255 255 255 255 255 255 255 255 255 255 255 255 255 255 255 255 255 253 254 255 255 252 255 249 253 255 255 255 255 255 255 255 255 255 255 181 137 255 154 53 255 161 36 255 161 39 255 160 38 255 158 38 255 156 33 255 164 88 255 248 255 255 255 255 255 255 255 255 255 255 255 252 255 255 254 254 255 255 255 
255 255 255 255 255 255 255 255 255 255 255 255 255 255 255 255 255 255 255 255 255 255 255 255 255 255 255 255 255 255 255 255 255 255 255 255 255 255 255 255 255 255 255 255 255 255 255 255 255 255 255 255 255 255 255 255 255 255 255 255 255 255 255 255 255 255 255 255 255 255 255 255 255 255 255 255 255 255 255 255 255 255 255 255 255 255 255 255 255 255 254 255 255 255 255 255 255 255 255 255 255 255 255 255 255 255 255 255 255 255 255 255 255 255 255 255 255 255 255 255 255 255 255 254 255 255 254 255 255 254 255 255 255 255 255 
